<svg xmlns="http://www.w3.org/2000/svg" xmlns:xlink="http://www.w3.org/1999/xlink" contentStyleType="text/css" data-diagram-type="DESCRIPTION" height="559px" preserveAspectRatio="none" style="width:1131px;height:559px;background:#FFFFFF;" version="1.1" viewBox="0 0 1131 559" width="1131px" zoomAndPan="magnify"><title>Arquitectura general del sistema</title><defs/><g><g class="title" data-source-line="1"><text fill="#000000" font-family="sans-serif" font-size="14" font-weight="bold" lengthAdjust="spacing" textLength="260.7773" x="428.2651" y="22.9951">Arquitectura general del sistema</text></g><!--cluster webClient--><g class="cluster" data-entity="webClient" data-source-line="5" data-uid="ent0003" id="cluster_webClient"><path d="M194,173.7969 L290.3545,173.7969 A3.75,3.75 0 0 1 292.8545,176.2969 L299.8545,196.0938 L1090,196.0938 A2.5,2.5 0 0 1 1092.5,198.5938 L1092.5,399.2969 A2.5,2.5 0 0 1 1090,401.7969 L194,401.7969 A2.5,2.5 0 0 1 191.5,399.2969 L191.5,176.2969 A2.5,2.5 0 0 1 194,173.7969" fill="none" style="stroke:#000000;stroke-width:1.5;"/><line style="stroke:#000000;stroke-width:1.5;" x1="191.5" x2="299.8545" y1="196.0938" y2="196.0938"/><text fill="#000000" font-family="sans-serif" font-size="14" font-weight="bold" lengthAdjust="spacing" textLength="95.3545" x="195.5" y="188.792">Cliente Web</text></g><!--entity LoginForm--><g class="entity" data-entity="LoginForm" data-source-line="6" data-uid="ent0004" id="entity_LoginForm"><rect fill="#F1F1F1" height="46.2969" rx="2.5" ry="2.5" style="stroke:#181818;stroke-width:0.5;" width="114.0264" x="853.5" y="216.7969"/><rect fill="#F1F1F1" height="10" style="stroke:#181818;stroke-width:0.5;" width="15" x="947.5264" y="221.7969"/><rect fill="#F1F1F1" height="2" style="stroke:#181818;stroke-width:0.5;" width="4" x="945.5264" y="223.7969"/><rect fill="#F1F1F1" height="2" style="stroke:#181818;stroke-width:0.5;" width="4" x="945.5264" y="227.7969"/><text fill="#000000" font-family="sans-serif" font-size="14" lengthAdjust="spacing" textLength="74.0264" x="868.5" y="249.792">LoginForm</text></g><!--entity Dashboard--><g class="entity" data-entity="Dashboard" data-source-line="7" data-uid="ent0005" id="entity_Dashboard"><rect fill="#F1F1F1" height="46.2969" rx="2.5" ry="2.5" style="stroke:#181818;stroke-width:0.5;" width="116.2002" x="463.5" y="216.7969"/><rect fill="#F1F1F1" height="10" style="stroke:#181818;stroke-width:0.5;" width="15" x="559.7002" y="221.7969"/><rect fill="#F1F1F1" height="2" style="stroke:#181818;stroke-width:0.5;" width="4" x="557.7002" y="223.7969"/><rect fill="#F1F1F1" height="2" style="stroke:#181818;stroke-width:0.5;" width="4" x="557.7002" y="227.7969"/><text fill="#000000" font-family="sans-serif" font-size="14" lengthAdjust="spacing" textLength="76.2002" x="478.5" y="249.792">Dashboard</text></g><!--entity useAuth--><g class="entity" data-entity="useAuth" data-source-line="8" data-uid="ent0006" id="entity_useAuth"><rect fill="#F1F1F1" height="46.2969" rx="2.5" ry="2.5" style="stroke:#181818;stroke-width:0.5;" width="195.7637" x="872.5" y="331.7969"/><rect fill="#F1F1F1" height="10" style="stroke:#181818;stroke-width:0.5;" width="15" x="1048.2637" y="336.7969"/><rect fill="#F1F1F1" height="2" style="stroke:#181818;stroke-width:0.5;" width="4" x="1046.2637" y="338.7969"/><rect fill="#F1F1F1" height="2" style="stroke:#181818;stroke-width:0.5;" width="4" x="1046.2637" y="342.7969"/><text fill="#000000" font-family="sans-serif" font-size="14" lengthAdjust="spacing" textLength="155.7637" x="887.5" y="364.792">useAuth / AuthService</text></g><!--entity useWS--><g class="entity" data-entity="useWS" data-source-line="9" data-uid="ent0007" id="entity_useWS"><rect fill="#F1F1F1" height="46.2969" rx="2.5" ry="2.5" style="stroke:#181818;stroke-width:0.5;" width="236.0205" x="223.5" y="331.7969"/><rect fill="#F1F1F1" height="10" style="stroke:#181818;stroke-width:0.5;" width="15" x="439.5205" y="336.7969"/><rect fill="#F1F1F1" height="2" style="stroke:#181818;stroke-width:0.5;" width="4" x="437.5205" y="338.7969"/><rect fill="#F1F1F1" height="2" style="stroke:#181818;stroke-width:0.5;" width="4" x="437.5205" y="342.7969"/><text fill="#000000" font-family="sans-serif" font-size="14" lengthAdjust="spacing" textLength="196.0205" x="238.5" y="364.792">useWebSocket / WS Service</text></g><!--entity NotificationsContainer--><g class="entity" data-entity="NotificationsContainer" data-source-line="10" data-uid="ent0008" id="entity_NotificationsContainer"><rect fill="#F1F1F1" height="46.2969" rx="2.5" ry="2.5" style="stroke:#181818;stroke-width:0.5;" width="196.0371" x="494.5" y="331.7969"/><rect fill="#F1F1F1" height="10" style="stroke:#181818;stroke-width:0.5;" width="15" x="670.5371" y="336.7969"/><rect fill="#F1F1F1" height="2" style="stroke:#181818;stroke-width:0.5;" width="4" x="668.5371" y="338.7969"/><rect fill="#F1F1F1" height="2" style="stroke:#181818;stroke-width:0.5;" width="4" x="668.5371" y="342.7969"/><text fill="#000000" font-family="sans-serif" font-size="14" lengthAdjust="spacing" textLength="156.0371" x="509.5" y="364.792">NotificationsContainer</text></g><!--entity ChatPanel--><g class="entity" data-entity="ChatPanel" data-source-line="11" data-uid="ent0009" id="entity_ChatPanel"><rect fill="#F1F1F1" height="46.2969" rx="2.5" ry="2.5" style="stroke:#181818;stroke-width:0.5;" width="111.1143" x="726" y="331.7969"/><rect fill="#F1F1F1" height="10" style="stroke:#181818;stroke-width:0.5;" width="15" x="817.1143" y="336.7969"/><rect fill="#F1F1F1" height="2" style="stroke:#181818;stroke-width:0.5;" width="4" x="815.1143" y="338.7969"/><rect fill="#F1F1F1" height="2" style="stroke:#181818;stroke-width:0.5;" width="4" x="815.1143" y="342.7969"/><text fill="#000000" font-family="sans-serif" font-size="14" lengthAdjust="spacing" textLength="71.1143" x="741" y="364.792">ChatPanel</text></g><!--entity admin--><g class="entity" data-entity="admin" data-source-line="3" data-uid="ent0002" id="entity_admin"><ellipse cx="199.6113" cy="51.2969" fill="#F1F1F1" rx="8" ry="8" style="stroke:#181818;stroke-width:0.5;"/><path d="M199.6113,59.2969 L199.6113,86.2969 M186.6113,67.2969 L212.6113,67.2969 M199.6113,86.2969 L186.6113,101.2969 M199.6113,86.2969 L212.6113,101.2969" fill="none" style="stroke:#181818;stroke-width:0.5;"/><text fill="#000000" font-family="sans-serif" font-size="14" lengthAdjust="spacing" textLength="89.2227" x="155" y="115.792">Responsable</text></g><!--entity LocalStorage--><g class="entity" data-entity="LocalStorage" data-source-line="22" data-uid="ent0016" id="entity_LocalStorage"><path d="M1003,506.7969 C1003,496.7969 1058.6538,496.7969 1058.6538,496.7969 C1058.6538,496.7969 1114.3076,496.7969 1114.3076,506.7969 L1114.3076,532.0938 C1114.3076,542.0938 1058.6538,542.0938 1058.6538,542.0938 C1058.6538,542.0938 1003,542.0938 1003,532.0938 L1003,506.7969" fill="#F1F1F1" style="stroke:#181818;stroke-width:0.5;"/><path d="M1003,506.7969 C1003,516.7969 1058.6538,516.7969 1058.6538,516.7969 C1058.6538,516.7969 1114.3076,516.7969 1114.3076,506.7969" fill="none" style="stroke:#181818;stroke-width:0.5;"/><text fill="#000000" font-family="sans-serif" font-size="14" lengthAdjust="spacing" textLength="91.3076" x="1013" y="533.792">LocalStorage</text></g><!--entity apiRest--><g class="entity" data-entity="apiRest" data-source-line="23" data-uid="ent0017" id="entity_apiRest"><rect fill="#F1F1F1" height="62.5938" rx="2.5" ry="2.5" style="stroke:#181818;stroke-width:0.5;" width="172.583" x="795" y="487.7969"/><rect fill="#F1F1F1" height="10" style="stroke:#181818;stroke-width:0.5;" width="15" x="947.583" y="492.7969"/><rect fill="#F1F1F1" height="2" style="stroke:#181818;stroke-width:0.5;" width="4" x="945.583" y="494.7969"/><rect fill="#F1F1F1" height="2" style="stroke:#181818;stroke-width:0.5;" width="4" x="945.583" y="498.7969"/><text fill="#000000" font-family="sans-serif" font-size="14" lengthAdjust="spacing" textLength="62.6104" x="810" y="520.792">API REST</text><text fill="#000000" font-family="sans-serif" font-size="14" lengthAdjust="spacing" textLength="132.583" x="810" y="537.0889">Servicios EMI Suite</text></g><!--entity brokerWS--><g class="entity" data-entity="brokerWS" data-source-line="24" data-uid="ent0018" id="entity_brokerWS"><rect fill="#F1F1F1" height="46.2969" rx="2.5" ry="2.5" style="stroke:#181818;stroke-width:0.5;" width="232.1514" x="57.5" y="496.2969"/><rect fill="#F1F1F1" height="10" style="stroke:#181818;stroke-width:0.5;" width="15" x="269.6514" y="501.2969"/><rect fill="#F1F1F1" height="2" style="stroke:#181818;stroke-width:0.5;" width="4" x="267.6514" y="503.2969"/><rect fill="#F1F1F1" height="2" style="stroke:#181818;stroke-width:0.5;" width="4" x="267.6514" y="507.2969"/><text fill="#000000" font-family="sans-serif" font-size="14" lengthAdjust="spacing" textLength="192.1514" x="72.5" y="529.292">Broker WebSocket / STOMP</text></g><!--entity emiSuite--><g class="entity" data-entity="emiSuite" data-source-line="25" data-uid="ent0019" id="entity_emiSuite"><path d="M6,333.7969 C6,323.7969 86.4375,323.7969 86.4375,323.7969 C86.4375,323.7969 166.875,323.7969 166.875,333.7969 L166.875,375.3906 C166.875,385.3906 86.4375,385.3906 86.4375,385.3906 C86.4375,385.3906 6,385.3906 6,375.3906 L6,333.7969" fill="#F1F1F1" style="stroke:#181818;stroke-width:0.5;"/><path d="M6,333.7969 C6,343.7969 86.4375,343.7969 86.4375,343.7969 C86.4375,343.7969 166.875,343.7969 166.875,333.7969" fill="none" style="stroke:#181818;stroke-width:0.5;"/><text fill="#000000" font-family="sans-serif" font-size="14" lengthAdjust="spacing" textLength="74.4229" x="16" y="360.792">EMI Suite /</text><text fill="#000000" font-family="sans-serif" font-size="14" lengthAdjust="spacing" textLength="140.875" x="16" y="377.0889">Sistema corporativo</text></g><!--link LoginForm to Dashboard--><!--link useAuth to useWS--><!--link LoginForm to useAuth--><g class="link" data-entity-1="LoginForm" data-entity-2="useAuth" data-source-line="16" data-uid="lnk12" id="link_LoginForm_useAuth"><path d="M922.21,262.8569 C932.78,282.7669 945.4464,306.6075 956.0064,326.4975" fill="none" id="LoginForm-to-useAuth" style="stroke:#181818;stroke-width:1;"/><polygon fill="#181818" points="958.82,331.7969,958.1326,321.972,956.4754,327.3807,951.0667,325.7235,958.82,331.7969" style="stroke:#181818;stroke-width:1;"/></g><!--link Dashboard to useWS--><g class="link" data-entity-1="Dashboard" data-entity-2="useWS" data-source-line="17" data-uid="lnk13" id="link_Dashboard_useWS"><path d="M486.37,262.8569 C454.65,282.7669 413.3119,308.7172 381.6219,328.6072" fill="none" id="Dashboard-to-useWS" style="stroke:#181818;stroke-width:1;stroke-dasharray:7,7;"/><polygon fill="#181818" points="376.54,331.7969,386.2893,330.4004,380.775,329.1388,382.0365,323.6244,376.54,331.7969" style="stroke:#181818;stroke-width:1;"/></g><!--link useWS to NotificationsContainer--><g class="link" data-entity-1="useWS" data-entity-2="NotificationsContainer" data-source-line="18" data-uid="lnk14" id="link_useWS_NotificationsContainer"><path d="M459.65,354.7969 C471.24,354.7969 476.83,354.7969 488.42,354.7969" fill="none" id="useWS-to-NotificationsContainer" style="stroke:#181818;stroke-width:1;"/><polygon fill="#181818" points="494.42,354.7969,485.42,350.7969,489.42,354.7969,485.42,358.7969,494.42,354.7969" style="stroke:#181818;stroke-width:1;"/></g><!--link NotificationsContainer to ChatPanel--><g class="link" data-entity-1="NotificationsContainer" data-entity-2="ChatPanel" data-source-line="19" data-uid="lnk15" id="link_NotificationsContainer_ChatPanel"><path d="M690.69,354.7969 C702.4,354.7969 708.1,354.7969 719.81,354.7969" fill="none" id="NotificationsContainer-to-ChatPanel" style="stroke:#181818;stroke-width:1;"/><polygon fill="#181818" points="725.81,354.7969,716.81,350.7969,720.81,354.7969,716.81,358.7969,725.81,354.7969" style="stroke:#181818;stroke-width:1;"/></g><!--link admin to webClient--><g class="link" data-entity-1="admin" data-entity-2="webClient" data-source-line="27" data-uid="lnk20" id="link_admin_webClient"><path d="M199.5,119.0069 C199.5,130.4319 199.5,143.4881 199.5,156.6809 C199.5,159.9791 199.5,163.2859 199.5,166.5778 C199.5,168.2238 199.5,169.866 199.5,171.5016 C199.5,171.9106 199.5,172.319 199.5,172.7271 C199.5,172.9311 199.5,167.135 199.5,167.3388" fill="none" id="admin-to-webClient" style="stroke:#181818;stroke-width:1;"/><polygon fill="#181818" points="199.5,173.3388,203.5,164.3388,199.5,168.3388,195.5,164.3388,199.5,173.3388" style="stroke:#181818;stroke-width:1;"/></g><!--link useAuth to LocalStorage--><g class="link" data-entity-1="useAuth" data-entity-2="LocalStorage" data-source-line="28" data-uid="lnk21" id="link_useAuth_LocalStorage"><path d="M982.55,378.0469 C999.45,409.2569 1027.1327,460.3809 1043.8727,491.2909" fill="none" id="useAuth-to-LocalStorage" style="stroke:#181818;stroke-width:1;stroke-dasharray:7,7;"/><polygon fill="#181818" points="1046.73,496.5669,1045.9613,486.7481,1044.3489,492.1702,1038.9267,490.5578,1046.73,496.5669" style="stroke:#181818;stroke-width:1;"/><text fill="#000000" font-family="sans-serif" font-size="13" lengthAdjust="spacing" textLength="75.772" x="1025.5" y="446.3638">sesi&#243;n local</text></g><!--link useAuth to apiRest--><g class="link" data-entity-1="useAuth" data-entity-2="apiRest" data-source-line="29" data-uid="lnk22" id="link_useAuth_apiRest"><path d="M956.23,377.8769 C947.61,391.5069 936.56,409.4569 927.5,425.7969 C916.28,446.0369 907.2908,463.9499 898.5508,482.1199" fill="none" id="useAuth-to-apiRest" style="stroke:#181818;stroke-width:1;"/><polygon fill="#181818" points="895.95,487.5269,903.4559,481.1503,898.1174,483.021,896.2466,477.6825,895.95,487.5269" style="stroke:#181818;stroke-width:1;"/><text fill="#000000" font-family="sans-serif" font-size="13" lengthAdjust="spacing" textLength="71.3159" x="928.5" y="446.3638">HTTP/REST</text></g><!--link useWS to brokerWS--><g class="link" data-entity-1="useWS" data-entity-2="brokerWS" data-source-line="30" data-uid="lnk23" id="link_useWS_brokerWS"><path d="M314.178,382.219 C282.098,413.259 232.8933,460.8561 200.8133,491.8761" fill="none" id="useWS-brokerWS" style="stroke:#181818;stroke-width:1;"/><polygon fill="#181818" points="318.49,378.0469,309.2406,381.4305,314.8967,381.5237,314.8035,387.1798,318.49,378.0469" style="stroke:#181818;stroke-width:1;"/><polygon fill="#181818" points="196.5,496.0469,205.7505,492.6662,200.0944,492.5712,200.1894,486.9152,196.5,496.0469" style="stroke:#181818;stroke-width:1;"/><text fill="#000000" font-family="sans-serif" font-size="13" lengthAdjust="spacing" textLength="58.8364" x="275.6729" y="438.8638">conexi&#243;n</text><text fill="#000000" font-family="sans-serif" font-size="13" lengthAdjust="spacing" textLength="73.1821" x="268.5" y="453.9966">persistente</text></g><!--link emiSuite to brokerWS--><g class="link" data-entity-1="emiSuite" data-entity-2="brokerWS" data-source-line="31" data-uid="lnk24" id="link_emiSuite_brokerWS"><path d="M102.66,385.9769 C119.76,417.9269 143.5072,462.2777 158.7872,490.8077" fill="none" id="emiSuite-to-brokerWS" style="stroke:#181818;stroke-width:1;"/><polygon fill="#181818" points="161.62,496.0969,160.897,486.2746,159.2594,491.6892,153.8447,490.0516,161.62,496.0969" style="stroke:#181818;stroke-width:1;"/><text fill="#000000" font-family="sans-serif" font-size="13" lengthAdjust="spacing" textLength="51.7524" x="141.5" y="446.3638">eventos</text></g><!--SRC=[VLFBRjj03BplLn2w9xuNGG7NIP40JM941dneSg1MZ4LOsbLtQRT0qQ_g9-J7mbt5Yg06rK4F3eSxGrB2qX8imuy32rav18GTEGhOGaqjH8v27Hg3Ldo0ue5Yxrt4ggK2C0BM7JjZUhHxt14KgvR92S6Mgep_f6e8mMy3UbdVAJzzV_CxTbzzw6RnIunDvJ7KitXnYBGyI0CBI8-Imf7j8E8D-O2WCaflzoJAsfOm8stB6UNE2p-pHM7rkF9EaBKLiwHLWx96HssEvzle1Sw-DrpNv9u2xnev-popS_BmJzgxcdd10HpzZVNW_7nAos-WoV_ny36KIE-U_XXJes25aLI5nRRKkUjepQIno_KDF5oLcqStD9HzXAlR6oZJ3WrhqRDkYan9NuBVws7JYPIR-zjrpgyog5R6iukn82pqd64DTGgXLpd2Hvzvr77EqVrCYvYxDQwSENKxTMhg1Jv1fCWlVnsqAJmc9lgRTCsvtcpMY-JJ3CszIF19gU9MdVrALHvTJo7_ARhwvgG9PkbqLDZ7Lm00]--></g></svg>