<?plantuml 1.2026.2?><svg xmlns="http://www.w3.org/2000/svg" xmlns:xlink="http://www.w3.org/1999/xlink" contentStyleType="text/css" data-diagram-type="DESCRIPTION" height="548px" preserveAspectRatio="none" style="width:1067px;height:548px;background:#FFFFFF;" version="1.1" viewBox="0 0 1067 548" width="1067px" zoomAndPan="magnify"><title>Diagrama de colaboracion - marcarLeida()</title><defs/><g><g class="title" data-source-line="1"><text fill="#000000" font-family="Arial" font-size="14" font-weight="bold" lengthAdjust="spacing" textLength="333.0059" x="360.2461" y="22.9951">Diagrama de colaboracion - marcarLeida()</text></g><!--cluster marcarLeida()--><g class="cluster" data-qualified-name="marcarLeida.." data-source-line="17" id="ent0004"><rect fill="none" height="498" rx="2.5" ry="2.5" style="stroke:#181818;stroke-width:1;" width="838" x="7" y="44.2969"/><path d="M96.3359,44.2969 L96.3359,48.9375 L86.3359,58.9375 L7,58.9375" fill="none" style="stroke:#181818;stroke-width:1;"/><text fill="#000000" font-family="Arial" font-size="10" font-weight="bold" lengthAdjust="spacing" textLength="79.3359" x="10" y="54.5791">marcarLeida()</text></g><!--entity responsable--><g class="entity" data-qualified-name="marcarLeida...responsable" data-source-line="18" id="ent0005"><rect fill="#FFFFFF" height="31.6406" rx="2.5" ry="2.5" style="stroke:#666666;stroke-width:0.5;" width="83.7305" x="629" y="74.2969"/><text fill="#000000" font-family="Arial" font-size="10" lengthAdjust="spacing" textLength="63.7305" x="639" y="93.5791">Responsable</text></g><!--entity vistaHistorial--><g class="entity" data-qualified-name="marcarLeida...vistaHistorial" data-source-line="19" id="ent0006"><rect fill="#6EA8FE" height="31.6406" rx="2.5" ry="2.5" style="stroke:#666666;stroke-width:0.5;" width="156.5381" x="592.5" y="179.2969"/><text fill="#000000" font-family="Arial" font-size="10" lengthAdjust="spacing" textLength="136.5381" x="602.5" y="198.5791">VistaHistorialNotificaciones</text></g><!--entity vistaNotificacion--><g class="entity" data-qualified-name="marcarLeida...vistaNotificacion" data-source-line="20" id="ent0007"><rect fill="#6EA8FE" height="31.6406" rx="2.5" ry="2.5" style="stroke:#666666;stroke-width:0.5;" width="103.833" x="23" y="389.2969"/><text fill="#000000" font-family="Arial" font-size="10" lengthAdjust="spacing" textLength="83.833" x="33" y="408.5791">VistaNotificacion</text></g><!--entity controladorLectura--><g class="entity" data-qualified-name="marcarLeida...controladorLectura" data-source-line="21" id="ent0008"><rect fill="#B7C85B" height="31.6406" rx="2.5" ry="2.5" style="stroke:#666666;stroke-width:0.5;" width="175.7471" x="393" y="284.2969"/><text fill="#000000" font-family="Arial" font-size="10" lengthAdjust="spacing" textLength="155.7471" x="403" y="303.5791">ControladorLecturaNotificacion</text></g><!--entity historial--><g class="entity" data-qualified-name="marcarLeida...historial" data-source-line="22" id="ent0009"><rect fill="#F4A742" height="31.6406" rx="2.5" ry="2.5" style="stroke:#666666;stroke-width:0.5;" width="131.6602" x="451" y="389.2969"/><text fill="#000000" font-family="Arial" font-size="10" lengthAdjust="spacing" textLength="111.6602" x="461" y="408.5791">HistorialNotificaciones</text></g><!--entity notificacion--><g class="entity" data-qualified-name="marcarLeida...notificacion" data-source-line="23" id="ent0010"><rect fill="#F4A742" height="31.6406" rx="2.5" ry="2.5" style="stroke:#666666;stroke-width:0.5;" width="78.9551" x="434.5" y="494.2969"/><text fill="#000000" font-family="Arial" font-size="10" lengthAdjust="spacing" textLength="58.9551" x="444.5" y="513.5791">Notificacion</text></g><!--entity historialAbierto--><g class="entity" data-qualified-name="historialAbierto" data-source-line="14" id="ent0002"><rect fill="#CDEFA6" height="31.6406" rx="2.5" ry="2.5" style="stroke:#666666;stroke-width:0.5;" width="125.3711" x="923.5" y="389.2969"/><text fill="#000000" font-family="Arial" font-size="10" lengthAdjust="spacing" textLength="105.3711" x="933.5" y="408.5791">:HISTORIAL_ABIERTO</text></g><!--entity notificacionLeida--><g class="entity" data-qualified-name="notificacionLeida" data-source-line="15" id="ent0003"><rect fill="#CDEFA6" height="31.6406" rx="2.5" ry="2.5" style="stroke:#666666;stroke-width:0.5;" width="129.9658" x="861" y="284.2969"/><text fill="#000000" font-family="Arial" font-size="10" lengthAdjust="spacing" textLength="109.9658" x="871" y="303.5791">:NOTIFICACION_LEIDA</text></g><!--link responsable to vistaHistorial--><g class="link" data-entity-1="ent0005" data-entity-2="ent0006" data-link-type="dependency" data-source-line="25" id="lnk11"><path d="M628.79,101.7369 C575.02,115.0269 489,136.2969 489,136.2969 C489,136.2969 489,149.2969 489,149.2969 C489,149.2969 551.4053,164.7269 604.3153,177.8069" fill="none" id="responsable-to-vistaHistorial" style="stroke:#222222;stroke-width:1;"/><polygon fill="#222222" points="610.14,179.2469,602.363,173.2039,605.2861,178.0469,600.4431,180.9701,610.14,179.2469" style="stroke:#222222;stroke-width:1;"/><text fill="#000000" font-family="Arial" font-size="10" lengthAdjust="spacing" textLength="137.6074" x="490" y="146.5791">marcarLeida(notificacionId)</text></g><!--link vistaHistorial to responsable--><g class="link" data-entity-1="ent0006" data-entity-2="ent0005" data-link-type="dependency" data-source-line="36" id="lnk22"><path d="M671,179.0369 C671,159.5369 671,131.9669 671,112.4969" fill="none" id="vistaHistorial-to-responsable" style="stroke:#222222;stroke-width:1;"/><polygon fill="#222222" points="671,106.4969,667,115.4969,671,111.4969,675,115.4969,671,106.4969" style="stroke:#222222;stroke-width:1;"/><text fill="#000000" font-family="Arial" font-size="10" lengthAdjust="spacing" textLength="156.7188" x="672" y="146.5791">notificacionMarcadaComoLeida</text></g><!--link vistaHistorial to controladorLectura--><g class="link" data-entity-1="ent0006" data-entity-2="ent0008" data-link-type="dependency" data-source-line="26" id="lnk12"><path d="M602.45,211.3469 C542.86,224.4269 466,241.2969 466,241.2969 C466,241.2969 466,254.2969 466,254.2969 C466,254.2969 469.6739,265.3143 474.0239,278.3743" fill="none" id="vistaHistorial-to-controladorLectura" style="stroke:#222222;stroke-width:1;"/><polygon fill="#222222" points="475.92,284.0669,476.8709,274.264,474.34,279.3231,469.2809,276.7921,475.92,284.0669" style="stroke:#222222;stroke-width:1;"/><text fill="#000000" font-family="Arial" font-size="10" lengthAdjust="spacing" textLength="175.8154" x="467" y="251.5791">solicitarMarcarLeida(notificacionId)</text></g><!--link controladorLectura to vistaHistorial--><g class="link" data-entity-1="ent0008" data-entity-2="ent0006" data-link-type="dependency" data-source-line="35" id="lnk21"><path d="M536.74,284.1869 C584.96,271.1169 647,254.2969 647,254.2969 C647,254.2969 655.2856,234.2609 662.3956,217.0809" fill="none" id="controladorLectura-to-vistaHistorial" style="stroke:#222222;stroke-width:1;"/><polygon fill="#222222" points="664.69,211.5369,657.5524,218.3233,662.778,216.1569,664.9444,221.3824,664.69,211.5369" style="stroke:#222222;stroke-width:1;"/><text fill="#000000" font-family="Arial" font-size="10" lengthAdjust="spacing" textLength="94.1406" x="654" y="251.5791">refrescarHistorial()</text></g><!--link controladorLectura to historial--><g class="link" data-entity-1="ent0008" data-entity-2="ent0009" data-link-type="dependency" data-source-line="27" id="lnk13"><path d="M421.9,316.4069 C370.78,329.4769 305,346.2969 305,346.2969 C305,346.2969 305,359.2969 305,359.2969 C305,359.2969 382.7209,375.7904 444.9209,389.0004" fill="none" id="controladorLectura-to-historial" style="stroke:#222222;stroke-width:1;"/><polygon fill="#222222" points="450.79,390.2469,442.8173,384.4644,445.8991,389.2081,441.1554,392.2899,450.79,390.2469" style="stroke:#222222;stroke-width:1;"/><text fill="#000000" font-family="Arial" font-size="10" lengthAdjust="spacing" textLength="167.5" x="306" y="356.5791">buscarNotificacion(notificacionId)</text></g><!--link controladorLectura to historial--><g class="link" data-entity-1="ent0008" data-entity-2="ent0009" data-link-type="dependency" data-source-line="30" id="lnk16"><path d="M486.31,316.4969 C493.12,335.9669 502.8692,363.8733 509.6892,383.3733" fill="none" id="controladorLectura-to-historial-1" style="stroke:#222222;stroke-width:1;"/><polygon fill="#222222" points="511.67,389.0369,512.4745,379.2209,510.0193,384.3172,504.9231,381.862,511.67,389.0369" style="stroke:#222222;stroke-width:1;"/><text fill="#000000" font-family="Arial" font-size="10" lengthAdjust="spacing" textLength="166.5674" x="503" y="356.5791">marcarComoLeida(notificacionId)</text></g><!--link historial to controladorLectura--><g class="link" data-entity-1="ent0009" data-entity-2="ent0008" data-link-type="dependency" data-source-line="33" id="lnk19"><path d="M571.06,389.1869 C617.83,376.1169 678,359.2969 678,359.2969 C678,359.2969 678,346.2969 678,346.2969 C678,346.2969 609.9894,330.7628 552.7194,317.6828" fill="none" id="historial-to-controladorLectura" style="stroke:#222222;stroke-width:1;"/><polygon fill="#222222" points="546.87,316.3469,554.7534,322.2504,551.7445,317.4602,556.5347,314.4512,546.87,316.3469" style="stroke:#222222;stroke-width:1;"/><text fill="#000000" font-family="Arial" font-size="10" lengthAdjust="spacing" textLength="102.6855" x="679" y="356.5791">confirmacionLectura</text></g><!--link historial to notificacion--><g class="link" data-entity-1="ent0009" data-entity-2="ent0010" data-link-type="dependency" data-source-line="28" id="lnk14"><path d="M450.81,417.5369 C372.32,430.8669 252,451.2969 252,451.2969 C252,451.2969 252,464.2969 252,464.2969 C252,464.2969 364.5795,487.1151 428.4295,500.0551" fill="none" id="historial-to-notificacion" style="stroke:#222222;stroke-width:1;"/><polygon fill="#222222" points="434.31,501.2469,426.2838,495.539,429.4096,500.2538,424.6948,503.3796,434.31,501.2469" style="stroke:#222222;stroke-width:1;"/><text fill="#000000" font-family="Arial" font-size="10" lengthAdjust="spacing" textLength="80.9863" x="253" y="461.5791">obtenerEstado()</text></g><!--link notificacion to historial--><g class="link" data-entity-1="ent0010" data-entity-2="ent0009" data-link-type="dependency" data-source-line="29" id="lnk15"><path d="M493.97,494.0669 C511.09,481.0069 533,464.2969 533,464.2969 C533,464.2969 533,451.2969 533,451.2969 C533,451.2969 529.0687,440.2406 524.4287,427.1806" fill="none" id="notificacion-to-historial" style="stroke:#222222;stroke-width:1;"/><polygon fill="#222222" points="522.42,421.5269,521.6639,431.3467,524.0939,426.2384,529.2022,428.6684,522.42,421.5269" style="stroke:#222222;stroke-width:1;"/><text fill="#000000" font-family="Arial" font-size="10" lengthAdjust="spacing" textLength="65.3809" x="534" y="461.5791">estadoActual</text></g><!--link historial to notificacion--><g class="link" data-entity-1="ent0009" data-entity-2="ent0010" data-link-type="dependency" data-source-line="31" id="lnk17"><path d="M467.64,421.4069 C424.94,434.4769 370,451.2969 370,451.2969 C370,451.2969 370,464.2969 370,464.2969 C370,464.2969 403.3633,478.7345 433.5733,491.8045" fill="none" id="historial-to-notificacion-1" style="stroke:#222222;stroke-width:1;"/><polygon fill="#222222" points="439.08,494.1869,432.4082,486.9421,434.4911,492.2015,429.2316,494.2844,439.08,494.1869" style="stroke:#222222;stroke-width:1;"/><text fill="#000000" font-family="Arial" font-size="10" lengthAdjust="spacing" textLength="153.3691" x="371" y="461.5791">actualizarEstado(isRead=true)</text></g><!--link notificacion to historial--><g class="link" data-entity-1="ent0010" data-entity-2="ent0009" data-link-type="dependency" data-source-line="32" id="lnk18"><path d="M513.84,495.9169 C553.34,482.6569 608,464.2969 608,464.2969 C608,464.2969 608,451.2969 608,451.2969 C608,451.2969 579.3687,437.1357 552.9287,424.0657" fill="none" id="notificacion-to-historial-1" style="stroke:#222222;stroke-width:1;"/><polygon fill="#222222" points="547.55,421.4069,553.8455,428.9809,552.0323,423.6226,557.3906,421.8093,547.55,421.4069" style="stroke:#222222;stroke-width:1;"/><text fill="#000000" font-family="Arial" font-size="10" lengthAdjust="spacing" textLength="92.002" x="609" y="461.5791">estadoActualizado</text></g><!--link controladorLectura to vistaNotificacion--><g class="link" data-entity-1="ent0008" data-entity-2="ent0007" data-link-type="dependency" data-source-line="34" id="lnk20"><path d="M392.58,311.3969 C276.41,324.6669 87,346.2969 87,346.2969 C87,346.2969 82.9274,366.0017 79.3674,383.1817" fill="none" id="controladorLectura-to-vistaNotificacion" style="stroke:#222222;stroke-width:1;"/><polygon fill="#222222" points="78.15,389.0569,83.893,381.0557,79.1645,384.1609,76.0594,379.4325,78.15,389.0569" style="stroke:#222222;stroke-width:1;"/><text fill="#000000" font-family="Arial" font-size="10" lengthAdjust="spacing" textLength="208.3057" x="88" y="356.5791">actualizarIndicadorLectura(notificacionId)</text></g><!--link historialAbierto to responsable--><g class="link" data-entity-1="ent0002" data-entity-2="ent0005" data-link-type="dependency" data-source-line="39" id="lnk23"><path d="M999.88,389.0669 C1011.78,376.0069 1027,359.2969 1027,359.2969 C1027,359.2969 1027,346.2969 1027,346.2969 C1027,346.2969 1009,284.2969 1009,284.2969 C1009,284.2969 980,241.2969 980,241.2969 C980,241.2969 837,136.2969 837,136.2969 C837,136.2969 768.291,117.6665 719.111,104.3365" fill="none" id="historialAbierto-to-responsable" style="stroke:#222222;stroke-width:1;stroke-dasharray:7,7;"/><polygon fill="#222222" points="713.32,102.7669,720.9601,108.982,718.1459,104.0749,723.053,101.2606,713.32,102.7669" style="stroke:#222222;stroke-width:1;"/><text fill="#000000" font-family="Arial" font-size="10" lengthAdjust="spacing" textLength="70.498" x="989" y="251.5791">marcarLeida()</text></g><!--link vistaHistorial to notificacionLeida--><g class="link" data-entity-1="ent0006" data-entity-2="ent0003" data-link-type="dependency" data-source-line="40" id="lnk24"><path d="M708.35,211.3869 C756.63,230.8869 834.6566,262.3999 882.9866,281.9199" fill="none" id="vistaHistorial-to-notificacionLeida" style="stroke:#222222;stroke-width:1;stroke-dasharray:7,7;"/><polygon fill="#222222" points="888.55,284.1669,881.7029,277.0875,883.9139,282.2944,878.707,284.5053,888.55,284.1669" style="stroke:#222222;stroke-width:1;"/><text fill="#000000" font-family="Arial" font-size="10" lengthAdjust="spacing" textLength="156.7188" x="815" y="251.5791">notificacionMarcadaComoLeida</text></g><!--link notificacionLeida to historialAbierto--><g class="link" data-entity-1="ent0003" data-entity-2="ent0002" data-link-type="dependency" data-source-line="41" id="lnk25"><path d="M922.28,316.5269 C919.08,329.5869 915,346.2969 915,346.2969 C915,346.2969 915,359.2969 915,359.2969 C915,359.2969 936.2926,372.7942 956.8926,385.8542" fill="none" id="notificacionLeida-to-historialAbierto" style="stroke:#222222;stroke-width:1;stroke-dasharray:7,7;"/><polygon fill="#222222" points="961.96,389.0669,956.5006,380.8696,957.7371,386.3897,952.2171,387.6262,961.96,389.0669" style="stroke:#222222;stroke-width:1;"/><text fill="#000000" font-family="Arial" font-size="10" lengthAdjust="spacing" textLength="106.0889" x="916" y="356.5791">historialActualizado()</text></g><?plantuml-src bLHDZzem4BtdLrXmWGEhThLVYjHA9YJQI1Ga5lMw6c87h0OFiarNkrN_UnsN9JO9TEkRP-QzUVDX6s4gJYO2rWgsG1Wd1LQmGWM5G4b6P0kg03NbWi5W64MH_Y7a3comZIrXNvaCfPd1bXEg15JT_YVnniddJvvJRu3XYv1hKaAbkUUfXEJcTSV93glN-kBvg5Buac25YlIltV6SYXS6vDgMyoiYP8oASNM8lNF7MXUubon19RaYjz7lA6f0lVWnVrhE5pcTFjDndYwMynu1JJP26wnBeol1bK7IJoPfHky2w6o-pBCyeKa-dprFqtn27LQY4QKeN2zT2u_Wg5Hrptf1UtjEkSUxu7g7KiEguevFDNVIpzm90T-jM7XyLpppqdFj67u60ROpANt8qWuI7ziWVMitEB7ZLdQ56Dgg2hDNRQQY5KBwu_lauNOSKbsgOzEKaDtG-vlh4DhAAGFX1uZ3D1qTZRwUzYSEzjydoTdGma_2QuQEwcAYiHA5CA2-NQJhmDQK6q_FQgyjWLzV1yycK1JK7XDS6MxtFxNA6Gxgy23WD25tSTIgiQ_xGnB_jYp1BPwhyw8-SAd46xnB57h1WNqnQi__IwsbODZArZaVQoo5sXuUghEUhxNz4dpHkMJMt40-FkRMxYbUslsqlJmQ1sUMpb_ZEEYGMpW6nsdKdrxhIxkwEgK8l_sJZ7Lu-slxHzuseAPfIOazKpF5mV0F?></g></svg>