<svg xmlns="http://www.w3.org/2000/svg" xmlns:xlink="http://www.w3.org/1999/xlink" contentStyleType="text/css" data-diagram-type="DESCRIPTION" height="873px" preserveAspectRatio="none" style="width:1122px;height:873px;background:#FFFFFF;" version="1.1" viewBox="0 0 1122 873" width="1122px" zoomAndPan="magnify"><title>Diagrama de despliegue - Sistema de Notificaciones EMI Suite</title><defs/><g><g class="title" data-source-line="1"><text fill="#000000" font-family="Arial" font-size="14" font-weight="bold" lengthAdjust="spacing" textLength="491.709" x="308.1472" y="22.9951">Diagrama de despliegue - Sistema de Notificaciones EMI Suite</text></g><!--cluster dispositivo--><g class="cluster" data-entity="dispositivo" data-source-line="12" data-uid="ent0003" id="cluster_dispositivo"><polygon fill="none" points="554,526.588,564,516.588,851,516.588,851,846.088,841,856.088,554,856.088,554,526.588" style="stroke:#181818;stroke-width:1;"/><line style="stroke:#181818;stroke-width:1;" x1="841" x2="851" y1="526.588" y2="516.588"/><line style="stroke:#181818;stroke-width:1;" x1="554" x2="841" y1="526.588" y2="526.588"/><line style="stroke:#181818;stroke-width:1;" x1="841" x2="841" y1="526.588" y2="856.088"/><text fill="#000000" font-family="Arial" font-size="10" font-weight="bold" lengthAdjust="spacing" textLength="158.667" x="619.1665" y="538.8702">Dispositivo del Responsable</text></g><!--cluster navegador--><g class="cluster" data-entity="navegador" data-source-line="13" data-uid="ent0004" id="cluster_navegador"><polygon fill="none" points="586,577.588,596,567.588,819,567.588,819,814.088,809,824.088,586,824.088,586,577.588" style="stroke:#181818;stroke-width:1;"/><line style="stroke:#181818;stroke-width:1;" x1="809" x2="819" y1="577.588" y2="567.588"/><line style="stroke:#181818;stroke-width:1;" x1="586" x2="809" y1="577.588" y2="577.588"/><line style="stroke:#181818;stroke-width:1;" x1="809" x2="809" y1="577.588" y2="824.088"/><text fill="#000000" font-family="Arial" font-size="10" font-weight="bold" lengthAdjust="spacing" textLength="87.9443" x="654.5278" y="589.8702">Navegador web</text></g><!--cluster hosting--><g class="cluster" data-entity="hosting" data-source-line="19" data-uid="ent0007" id="cluster_hosting"><polygon fill="none" points="16,340.588,26,330.588,299,330.588,299,665.088,289,675.088,16,675.088,16,340.588" style="stroke:#181818;stroke-width:1;"/><line style="stroke:#181818;stroke-width:1;" x1="289" x2="299" y1="340.588" y2="330.588"/><line style="stroke:#181818;stroke-width:1;" x1="16" x2="289" y1="340.588" y2="340.588"/><line style="stroke:#181818;stroke-width:1;" x1="289" x2="289" y1="340.588" y2="675.088"/><text fill="#000000" font-family="Arial" font-size="10" font-weight="bold" lengthAdjust="spacing" textLength="176.2744" x="65.3628" y="352.8702">Servidor web / hosting estatico</text></g><!--cluster emi--><g class="cluster" data-entity="emi" data-source-line="25" data-uid="ent0011" id="cluster_emi"><path d="M660.2991,64.2922 C669.0252,49.314 681.2861,43.2969 693.7784,60.3565 C705.8018,47.1662 716.3393,46.6694 724.4085,64.2879 C730.1605,47.6969 742.1017,48.7197 752.4631,59.5765 C763.6638,47.7049 777.0644,47.1906 783.7487,64.4302 C793.9087,48.7604 803.7153,47.7913 815.6093,62.6186 C823.8461,48.2032 837.2906,48.4115 844.9479,63.2007 C852.2036,50.0402 864.0593,49.6813 872.1022,62.3739 C881.8217,46.0985 893.2086,48.8616 903.3565,61.9175 C914.3046,47.3944 924.6224,47.7012 934.524,63.0108 C943.7312,45.1517 955.4919,45.2911 966.8585,60.9262 C975.1701,48.1353 987.8034,49.7376 995.6193,61.5067 C1004.3464,49.5434 1018.0217,48.8247 1025.1125,63.3299 C1033.33,47.5161 1046.2551,46.5292 1055.2213,62.6234 C1066.87,46.3005 1082.316,50.131 1089,67.588 C1092.4123,66.6636 1094.4227,69.0301 1093.2089,72.267 C1108.0726,82.1963 1106.6301,91.5342 1093.1969,101.4518 C1105.9611,107.1894 1110.1179,119.7883 1097.0936,129.1533 C1113.386,138.8808 1113.665,154.8437 1096.5064,164.0077 C1113.2655,172.8057 1113.1555,183.3457 1098.2862,194.0194 C1110.4866,201.3093 1112.8185,214.0809 1099.5627,222.5113 C1114.7981,231.2933 1114.9027,244.1489 1098.652,251.9571 C1113.5255,262.1715 1115.0034,273.6828 1098.4831,283.7302 C1111.2143,293.9863 1110.5202,304.6632 1095.7352,312.2699 C1113.6437,321.1087 1114.1007,335.1941 1096.5057,344.872 C1110.7063,354.1927 1106.7614,367.3449 1094.0685,374.4495 C1107.5933,384.1554 1110.6748,397.0189 1093.2081,405.8764 C1105.7713,419.93 1101.5204,436.8939 1082,440.588 C1082.8392,440.1548 1083.6068,440.4012 1083.6135,441.4778 C1076.0568,457.8579 1064.2615,456.8025 1054.4136,443.7508 C1048.4664,457.2447 1033.5417,459.8399 1024.1774,447.7966 C1014.369,461.6634 1002.0937,458.7098 994.0042,445.8555 C986.4381,461.2052 972.8882,466.2408 961.6393,449.579 C954.004,463.2879 944.4722,465.7998 934.5191,451.8517 C925.7481,466.3573 913.8562,467.5398 904.8826,452.0518 C897.3828,465.7299 882.8335,467.4091 873.8746,453.7042 C865.6747,465.6588 853.5517,467.5878 846.0774,452.9458 C836.1843,468.5431 821.7629,463.4407 815.2459,449.43 C806.3234,464.7179 790.5789,463.5762 783.2606,447.7793 C773.975,463.7956 761.169,464.745 751.9521,447.7143 C744.6448,461.7374 730.8757,463.4453 722.6149,448.6862 C711.3126,461.2084 697.6828,461.8325 691.5926,443.4536 C676.3375,456.143 660.1572,452.5762 653,433.588 C654.0307,432.8185 654.9013,433.4288 654.8674,434.6081 C642.5199,426.5279 639.1352,415.5756 653.0171,405.8102 C638.5254,398.6236 637.8562,386.4334 651.8452,378.0448 C636.8532,366.0903 634.6355,353.9357 652.0655,342.1803 C637.8859,334.3441 636.2673,322.2917 650.9083,313.3007 C637.8613,307.3453 636.1513,293.5819 648.3681,285.332 C628.5258,277.6084 626.5736,264.4938 642.5291,250.7295 C631.0919,238.0159 633.974,228.6731 649.1933,222.1823 C634.3479,214.1141 634.4192,201.841 646.0764,191.1139 C631.608,181.6711 632.5336,169.1693 647.9642,161.6417 C634.1448,153.0067 634.7452,138.3062 649.9137,131.5491 C636.0784,120.1811 638.0881,105.8273 655.7829,100.4002 C640.5667,87.1366 637.7674,69.8848 660,60.588 C661.625,61.4538 661.7228,63.1803 660.2991,64.2922" fill="none" style="stroke:#181818;stroke-width:1;"/><text fill="#000000" font-family="Arial" font-size="10" font-weight="bold" lengthAdjust="spacing" textLength="142.7197" x="799.6401" y="74.8702">Infraestructura EMI Suite</text></g><!--cluster broker--><g class="cluster" data-entity="broker" data-source-line="26" data-uid="ent0012" id="cluster_broker"><polygon fill="none" points="669,228.588,679,218.588,1073,218.588,1073,414.588,1063,424.588,669,424.588,669,228.588" style="stroke:#181818;stroke-width:1;"/><line style="stroke:#181818;stroke-width:1;" x1="1063" x2="1073" y1="228.588" y2="218.588"/><line style="stroke:#181818;stroke-width:1;" x1="669" x2="1063" y1="228.588" y2="228.588"/><line style="stroke:#181818;stroke-width:1;" x1="1063" x2="1063" y1="228.588" y2="424.588"/><text fill="#000000" font-family="Arial" font-size="10" font-weight="bold" lengthAdjust="spacing" textLength="147.9102" x="793.0449" y="240.8702">Broker WebSocket/STOMP</text></g><!--cluster produccion--><g class="cluster" data-entity="produccion" data-source-line="33" data-uid="ent0017" id="cluster_produccion"><polygon fill="none" points="725,100.588,735,90.588,929,90.588,929,163.588,919,173.588,725,173.588,725,100.588" style="stroke:#181818;stroke-width:1;"/><line style="stroke:#181818;stroke-width:1;" x1="919" x2="929" y1="100.588" y2="90.588"/><line style="stroke:#181818;stroke-width:1;" x1="725" x2="919" y1="100.588" y2="100.588"/><line style="stroke:#181818;stroke-width:1;" x1="919" x2="919" y1="100.588" y2="173.588"/><text fill="#000000" font-family="Arial" font-size="10" font-weight="bold" lengthAdjust="spacing" textLength="128.7256" x="758.6372" y="112.8702">Sistema de produccion</text></g><!--entity spa--><g class="entity" data-entity="spa" data-source-line="14" data-uid="ent0005" id="entity_spa"><rect fill="#F1F1F1" height="46.2813" rx="2.5" ry="2.5" style="stroke:#181818;stroke-width:0.5;" width="166.4014" x="629" y="610.588"/><polygon fill="#F1F1F1" points="778.4014,615.588,778.4014,629.588,790.4014,629.588,790.4014,621.588,784.4014,615.588,778.4014,615.588" style="stroke:#181818;stroke-width:0.5;"/><line style="stroke:#181818;stroke-width:0.5;" x1="784.4014" x2="784.4014" y1="615.588" y2="621.588"/><line style="stroke:#181818;stroke-width:0.5;" x1="790.4014" x2="784.4014" y1="621.588" y2="621.588"/><text fill="#000000" font-family="Arial" font-size="10" lengthAdjust="spacing" textLength="51.0449" x="639" y="632.8702">SPA React</text><text fill="#000000" font-family="Arial" font-size="10" lengthAdjust="spacing" textLength="136.4014" x="639" y="644.5109">EmiSuite Centro de Control</text></g><!--entity localstorage--><g class="entity" data-entity="localstorage" data-source-line="15" data-uid="ent0006" id="entity_localstorage"><rect fill="#F1F1F1" height="46.2813" rx="2.5" ry="2.5" style="stroke:#181818;stroke-width:0.5;" width="149.1016" x="628.5" y="754.088"/><polygon fill="#F1F1F1" points="760.6016,759.088,760.6016,773.088,772.6016,773.088,772.6016,765.088,766.6016,759.088,760.6016,759.088" style="stroke:#181818;stroke-width:0.5;"/><line style="stroke:#181818;stroke-width:0.5;" x1="766.6016" x2="766.6016" y1="759.088" y2="765.088"/><line style="stroke:#181818;stroke-width:0.5;" x1="772.6016" x2="766.6016" y1="765.088" y2="765.088"/><text fill="#000000" font-family="Arial" font-size="10" lengthAdjust="spacing" textLength="65.2197" x="638.5" y="776.3702">LocalStorage</text><text fill="#000000" font-family="Arial" font-size="10" lengthAdjust="spacing" textLength="119.1016" x="638.5" y="788.0109">employee_auth_session</text></g><!--entity index--><g class="entity" data-entity="index" data-source-line="20" data-uid="ent0008" id="entity_index"><rect fill="#F1F1F1" height="34.6406" rx="2.5" ry="2.5" style="stroke:#181818;stroke-width:0.5;" width="83.4912" x="40.5" y="373.588"/><polygon fill="#F1F1F1" points="106.9912,378.588,106.9912,392.588,118.9912,392.588,118.9912,384.588,112.9912,378.588,106.9912,378.588" style="stroke:#181818;stroke-width:0.5;"/><line style="stroke:#181818;stroke-width:0.5;" x1="112.9912" x2="112.9912" y1="378.588" y2="384.588"/><line style="stroke:#181818;stroke-width:0.5;" x1="118.9912" x2="112.9912" y1="384.588" y2="384.588"/><text fill="#000000" font-family="Arial" font-size="10" lengthAdjust="spacing" textLength="53.4912" x="50.5" y="395.8702">index.html</text></g><!--entity assets--><g class="entity" data-entity="assets" data-source-line="21" data-uid="ent0009" id="entity_assets"><rect fill="#F1F1F1" height="34.6406" rx="2.5" ry="2.5" style="stroke:#181818;stroke-width:0.5;" width="97.3535" x="158.5" y="373.588"/><polygon fill="#F1F1F1" points="238.8535,378.588,238.8535,392.588,250.8535,392.588,250.8535,384.588,244.8535,378.588,238.8535,378.588" style="stroke:#181818;stroke-width:0.5;"/><line style="stroke:#181818;stroke-width:0.5;" x1="244.8535" x2="244.8535" y1="378.588" y2="384.588"/><line style="stroke:#181818;stroke-width:0.5;" x1="250.8535" x2="244.8535" y1="384.588" y2="384.588"/><text fill="#000000" font-family="Arial" font-size="10" lengthAdjust="spacing" textLength="67.3535" x="168.5" y="395.8702">assets JS/CSS</text></g><!--entity publicos--><g class="entity" data-entity="publicos" data-source-line="22" data-uid="ent0010" id="entity_publicos"><rect fill="#F1F1F1" height="34.6406" rx="2.5" ry="2.5" style="stroke:#181818;stroke-width:0.5;" width="172.7197" x="40.5" y="616.088"/><polygon fill="#F1F1F1" points="196.2197,621.088,196.2197,635.088,208.2197,635.088,208.2197,627.088,202.2197,621.088,196.2197,621.088" style="stroke:#181818;stroke-width:0.5;"/><line style="stroke:#181818;stroke-width:0.5;" x1="202.2197" x2="202.2197" y1="621.088" y2="627.088"/><line style="stroke:#181818;stroke-width:0.5;" x1="208.2197" x2="202.2197" y1="627.088" y2="627.088"/><text fill="#000000" font-family="Arial" font-size="10" lengthAdjust="spacing" textLength="142.7197" x="50.5" y="638.3702">favicon / imagenes / sonidos</text></g><!--entity endpoint--><g class="entity" data-entity="endpoint" data-source-line="27" data-uid="ent0013" id="entity_endpoint"><rect fill="#F1F1F1" height="34.6406" rx="2.5" ry="2.5" style="stroke:#181818;stroke-width:0.5;" width="221.2891" x="734.5" y="373.588"/><polygon fill="#F1F1F1" points="938.7891,378.588,938.7891,392.588,950.7891,392.588,950.7891,384.588,944.7891,378.588,938.7891,378.588" style="stroke:#181818;stroke-width:0.5;"/><line style="stroke:#181818;stroke-width:0.5;" x1="944.7891" x2="944.7891" y1="378.588" y2="384.588"/><line style="stroke:#181818;stroke-width:0.5;" x1="950.7891" x2="944.7891" y1="384.588" y2="384.588"/><text fill="#000000" font-family="Arial" font-size="10" lengthAdjust="spacing" textLength="191.2891" x="744.5" y="395.8702">wss://desarrollo.emisuite.es:15673/ws</text></g><!--entity notices--><g class="entity" data-entity="notices" data-source-line="28" data-uid="ent0014" id="entity_notices"><path d="M690.5,253.588 L767.917,253.588 C772.917,253.588 772.917,264.4083 772.917,264.4083 C772.917,264.4083 772.917,275.2286 767.917,275.2286 L690.5,275.2286 C685.5,275.2286 685.5,264.4083 685.5,264.4083 C685.5,264.4083 685.5,253.588 690.5,253.588" fill="#F1F1F1" style="stroke:#181818;stroke-width:0.5;"/><path d="M767.917,253.588 C762.917,253.588 762.917,264.4083 762.917,264.4083 C762.917,275.2286 767.917,275.2286 767.917,275.2286" fill="none" style="stroke:#181818;stroke-width:0.5;"/><text fill="#000000" font-family="Arial" font-size="10" lengthAdjust="spacing" textLength="67.417" x="690.5" y="267.8702">/topic/notices</text></g><!--entity updateui--><g class="entity" data-entity="updateui" data-source-line="29" data-uid="ent0015" id="entity_updateui"><path d="M813,253.588 L898.752,253.588 C903.752,253.588 903.752,264.4083 903.752,264.4083 C903.752,264.4083 903.752,275.2286 898.752,275.2286 L813,275.2286 C808,275.2286 808,264.4083 808,264.4083 C808,264.4083 808,253.588 813,253.588" fill="#F1F1F1" style="stroke:#181818;stroke-width:0.5;"/><path d="M898.752,253.588 C893.752,253.588 893.752,264.4083 893.752,264.4083 C893.752,275.2286 898.752,275.2286 898.752,275.2286" fill="none" style="stroke:#181818;stroke-width:0.5;"/><text fill="#000000" font-family="Arial" font-size="10" lengthAdjust="spacing" textLength="75.752" x="813" y="267.8702">/topic/updateui</text></g><!--entity outputtrigger--><g class="entity" data-entity="outputtrigger" data-source-line="30" data-uid="ent0016" id="entity_outputtrigger"><path d="M944,253.588 L1052.1543,253.588 C1057.1543,253.588 1057.1543,264.4083 1057.1543,264.4083 C1057.1543,264.4083 1057.1543,275.2286 1052.1543,275.2286 L944,275.2286 C939,275.2286 939,264.4083 939,264.4083 C939,264.4083 939,253.588 944,253.588" fill="#F1F1F1" style="stroke:#181818;stroke-width:0.5;"/><path d="M1052.1543,253.588 C1047.1543,253.588 1047.1543,264.4083 1047.1543,264.4083 C1047.1543,275.2286 1052.1543,275.2286 1052.1543,275.2286" fill="none" style="stroke:#181818;stroke-width:0.5;"/><text fill="#000000" font-family="Arial" font-size="10" lengthAdjust="spacing" textLength="98.1543" x="944" y="267.8702">/topic/outputtrigger</text></g><!--entity eventos--><g class="entity" data-entity="eventos" data-source-line="34" data-uid="ent0018" id="entity_eventos"><rect fill="#F1F1F1" height="31.6406" rx="2.5" ry="2.5" style="stroke:#181818;stroke-width:0.5;" width="110.4736" x="772" y="125.588"/><text fill="#000000" font-family="Arial" font-size="10" lengthAdjust="spacing" textLength="90.4736" x="782" y="144.8702">Eventos de planta</text></g><!--entity Responsable--><g class="entity" data-entity="Responsable" data-source-line="10" data-uid="ent0002" id="entity_Responsable"><ellipse cx="596.8652" cy="363.588" fill="#F1F1F1" rx="8" ry="8" style="stroke:#181818;stroke-width:0.5;"/><path d="M596.8652,371.588 L596.8652,398.588 M583.8652,379.588 L609.8652,379.588 M596.8652,398.588 L583.8652,413.588 M596.8652,398.588 L609.8652,413.588" fill="none" style="stroke:#181818;stroke-width:0.5;"/><text fill="#000000" font-family="Arial" font-size="10" lengthAdjust="spacing" textLength="63.7305" x="565" y="424.3702">Responsable</text></g><!--link Responsable to navegador--><g class="link" data-entity-1="Responsable" data-entity-2="navegador" data-source-line="38" data-uid="lnk19" id="link_Responsable_navegador"><path d="M596.51,427.488 C596.26,445.888 596,464.588 596,464.588 C596,464.588 595.515,505.2855 595.0225,546.6193 C594.9609,551.786 594.8993,556.9626 594.8384,562.071 C594.8232,563.3481 594.808,564.6209 594.7929,565.8882 C594.7891,566.2051 594.8568,560.522 594.8531,560.8381" fill="none" id="Responsable-to-navegador" style="stroke:#181818;stroke-width:1;"/><polygon fill="#181818" points="594.7816,566.8377,598.8885,557.886,594.8412,561.838,590.8891,557.7907,594.7816,566.8377" style="stroke:#181818;stroke-width:1;"/><text fill="#000000" font-family="Arial" font-size="10" lengthAdjust="spacing" textLength="71.2451" x="597" y="486.3702">usa aplicacion</text></g><!--link navegador to hosting--><g class="link" data-entity-1="navegador" data-entity-2="hosting" data-source-line="40" data-uid="lnk20" id="link_navegador_hosting"><path d="M585.9509,628.8367 C584.3599,628.0945 582.5516,627.2511 580.5431,626.3142 C572.5088,622.5666 561.2691,617.3239 547.9039,611.0897 C521.1734,598.6215 485.9406,582.1874 450.8438,565.8168 C380.65,533.0755 311,500.588 311,500.588 C311,500.588 306.155,474.303 301.2338,447.608 C300.6186,444.2711 300.0022,440.9279 299.394,437.6287 C299.318,437.2163 299.2421,436.8046 299.1663,436.3937 C299.1285,436.1882 300.1784,441.8835 300.1406,441.6785" fill="none" id="navegador-to-hosting" style="stroke:#181818;stroke-width:1;"/><polygon fill="#181818" points="299.0528,435.7779,296.7508,445.354,299.9593,440.6951,304.6183,443.9036,299.0528,435.7779" style="stroke:#181818;stroke-width:1;"/><text fill="#000000" font-family="Arial" font-size="10" lengthAdjust="spacing" textLength="88.7793" x="312" y="480.3702">solicita aplicacion</text><text fill="#000000" font-family="Arial" font-size="10" lengthAdjust="spacing" textLength="32.1143" x="340.3325" y="492.0109">HTTPS</text></g><!--link hosting to navegador--><g class="link" data-entity-1="hosting" data-entity-2="navegador" data-source-line="41" data-uid="lnk21" id="link_hosting_navegador"><path d="M299.3391,397.3925 C299.4603,397.4696 299.5825,397.5474 299.7059,397.6258 C300.6929,398.2536 301.7512,398.9268 302.8742,399.641 C305.1203,401.0696 307.625,402.6626 310.3355,404.3865 C321.1772,411.2818 335.3094,420.2693 349.3338,429.188 C377.3825,447.0255 405,464.588 405,464.588 C405,464.588 450.785,505.2855 497.285,546.6193 C520.535,567.2861 543.9637,588.1121 561.9375,604.0894 C570.9244,612.0781 578.5475,618.8546 584.1027,623.793 C584.4499,624.1017 584.789,624.4032 585.1198,624.6973 C585.2853,624.8444 580.9644,621.0032 581.1257,621.1466" fill="none" id="hosting-to-navegador" style="stroke:#181818;stroke-width:1;"/><polygon fill="#181818" points="585.6099,625.133,581.5412,616.1638,581.8731,621.811,576.226,622.1428,585.6099,625.133" style="stroke:#181818;stroke-width:1;"/><text fill="#000000" font-family="Arial" font-size="10" lengthAdjust="spacing" textLength="111.8457" x="443" y="480.3702">entrega HTML, JS, CSS</text><text fill="#000000" font-family="Arial" font-size="10" lengthAdjust="spacing" textLength="99.2432" x="449.3013" y="492.0109">imagenes y sonidos</text></g><!--link spa to localstorage--><g class="link" data-entity-1="spa" data-entity-2="localstorage" data-source-line="43" data-uid="lnk22" id="link_spa_localstorage"><path d="M710.59,656.698 C708.91,683.128 706.5009,721.1101 704.8109,747.6801" fill="none" id="spa-to-localstorage" style="stroke:#181818;stroke-width:1;"/><polygon fill="#181818" points="704.43,753.668,708.9932,744.9401,704.7474,748.6781,701.0094,744.4323,704.43,753.668" style="stroke:#181818;stroke-width:1;"/><text fill="#000000" font-family="Arial" font-size="10" lengthAdjust="spacing" textLength="91.709" x="708" y="709.3702">guarda / lee token</text><text fill="#000000" font-family="Arial" font-size="10" lengthAdjust="spacing" textLength="73.9648" x="716.8721" y="721.0109">de sesion local</text></g><!--link spa to endpoint--><g class="link" data-entity-1="spa" data-entity-2="endpoint" data-source-line="45" data-uid="lnk23" id="link_spa_endpoint"><path d="M711.5,610.498 C710.64,572.918 709,500.588 709,500.588 C709,500.588 709,464.588 709,464.588 C709,464.588 768.3557,432.9512 808.5057,411.5412" fill="none" id="spa-to-endpoint" style="stroke:#181818;stroke-width:1;"/><polygon fill="#181818" points="813.8,408.718,803.9764,409.4233,809.3881,411.0707,807.7407,416.4823,813.8,408.718" style="stroke:#181818;stroke-width:1;"/><text fill="#000000" font-family="Arial" font-size="10" lengthAdjust="spacing" textLength="39.6533" x="736.106" y="474.8702">conecta</text><text fill="#000000" font-family="Arial" font-size="10" lengthAdjust="spacing" textLength="91.8652" x="710" y="486.5109">STOMP sobre WSS</text><text fill="#000000" font-family="Arial" font-size="10" lengthAdjust="spacing" textLength="3.1787" x="754.3433" y="498.1515">&#160;</text></g><!--link endpoint to spa--><g class="link" data-entity-1="endpoint" data-entity-2="spa" data-source-line="46" data-uid="lnk24" id="link_endpoint_spa"><path d="M838.91,409.038 C827.94,439.558 806,500.588 806,500.588 C806,500.588 757.9703,568.0305 731.2103,605.6105" fill="none" id="endpoint-to-spa" style="stroke:#181818;stroke-width:1;"/><polygon fill="#181818" points="727.73,610.498,736.2088,605.487,730.6302,606.4251,729.6921,600.8466,727.73,610.498" style="stroke:#181818;stroke-width:1;"/><text fill="#000000" font-family="Arial" font-size="10" lengthAdjust="spacing" textLength="70.3027" x="820.5942" y="480.3702">envia eventos</text><text fill="#000000" font-family="Arial" font-size="10" lengthAdjust="spacing" textLength="73.4912" x="819" y="492.0109">de notificacion</text></g><!--link eventos to notices--><g class="link" data-entity-1="eventos" data-entity-2="notices" data-source-line="48" data-uid="lnk25" id="link_eventos_notices"><path d="M800.28,157.718 C776.02,171.458 744,189.588 744,189.588 C744,189.588 736.4017,227.0876 732.2817,247.4176" fill="none" id="eventos-to-notices" style="stroke:#181818;stroke-width:1;"/><polygon fill="#181818" points="731.09,253.298,736.7979,245.2718,732.0831,248.3976,728.9573,243.6829,731.09,253.298" style="stroke:#181818;stroke-width:1;"/><text fill="#000000" font-family="Arial" font-size="10" lengthAdjust="spacing" textLength="70.7568" x="745" y="199.8702">publica avisos</text></g><!--link eventos to updateui--><g class="link" data-entity-1="eventos" data-entity-2="updateui" data-source-line="49" data-uid="lnk26" id="link_eventos_updateui"><path d="M826.03,157.718 C825.16,171.458 824,189.588 824,189.588 C824,189.588 824,202.588 824,202.588 C824,202.588 838.843,230.8746 847.933,248.2046" fill="none" id="eventos-to-updateui" style="stroke:#181818;stroke-width:1;"/><polygon fill="#181818" points="850.72,253.518,850.0818,243.6899,848.3975,249.0902,842.9972,247.4059,850.72,253.518" style="stroke:#181818;stroke-width:1;"/><text fill="#000000" font-family="Arial" font-size="10" lengthAdjust="spacing" textLength="116.4355" x="825" y="199.8702">publica actualizaciones</text></g><!--link eventos to outputtrigger--><g class="link" data-entity-1="eventos" data-entity-2="outputtrigger" data-source-line="50" data-uid="lnk27" id="link_eventos_outputtrigger"><path d="M864.98,157.588 C899.81,171.348 946,189.588 946,189.588 C946,189.588 973.0297,228.0593 987.3197,248.3893" fill="none" id="eventos-to-outputtrigger" style="stroke:#181818;stroke-width:1;"/><polygon fill="#181818" points="990.77,253.298,988.867,243.6348,987.8947,249.2074,982.322,248.2352,990.77,253.298" style="stroke:#181818;stroke-width:1;"/><text fill="#000000" font-family="Arial" font-size="10" lengthAdjust="spacing" textLength="94.8877" x="955" y="199.8702">publica produccion</text></g><!--link notices to endpoint--><g class="link" data-entity-1="notices" data-entity-2="endpoint" data-source-line="52" data-uid="lnk28" id="link_notices_endpoint"><path d="M738.49,275.778 C758.51,297.268 801.1302,342.9978 825.5002,369.1578" fill="none" id="notices-to-endpoint" style="stroke:#181818;stroke-width:1;"/><polygon fill="#181818" points="829.59,373.548,826.3821,364.2362,826.1818,369.8895,820.5285,369.6893,829.59,373.548" style="stroke:#181818;stroke-width:1;"/></g><!--link updateui to endpoint--><g class="link" data-entity-1="updateui" data-entity-2="endpoint" data-source-line="53" data-uid="lnk29" id="link_updateui_endpoint"><path d="M855.1,275.778 C853.2,297.268 849.2978,341.4113 846.9878,367.5713" fill="none" id="updateui-to-endpoint" style="stroke:#181818;stroke-width:1;"/><polygon fill="#181818" points="846.46,373.548,851.2361,364.9347,846.8998,368.5674,843.2671,364.2311,846.46,373.548" style="stroke:#181818;stroke-width:1;"/></g><!--link outputtrigger to endpoint--><g class="link" data-entity-1="outputtrigger" data-entity-2="endpoint" data-source-line="54" data-uid="lnk30" id="link_outputtrigger_endpoint"><path d="M985.48,275.778 C959.07,297.268 902.1234,343.6004 869.9834,369.7604" fill="none" id="outputtrigger-to-endpoint" style="stroke:#181818;stroke-width:1;"/><polygon fill="#181818" points="865.33,373.548,874.8352,370.9689,869.2078,370.3917,869.785,364.7644,865.33,373.548" style="stroke:#181818;stroke-width:1;"/></g><!--SRC=[RLJRQjj047tNLmn-JgA6qXRoK4YJbAGaQQWCUJ64iJIMXwnsrRtOTKh_lRChorwRWC7QcNFcidDcFNj5SCtOMkmG6fAVwnLJ6mXEeMBdQR0_6iyBhh5ceyd1pSCTL84z5OLxPTsZy46n9h_f2NgZDl6G-HfQO53-kz7-4Jk2IyketlTN_4Pm_Y5pkYKsPiswXGKgbuUjJTTBGKBo6-d4KkrHjog7QDFGiRV0sXiBlwHPentEeodYO7BDOdBiUMMa9fL39e0Ecip_jm0OM8-uebPgjB2cUSBfdIMY0D3A_KbMc5HFbn9LFcVwfkDqYN0b7TYO4AvC_58fXklnY7jlQbILb8ujpJHrlJ8ReXSCVldYo3aPJcAgY7C3JaByA_wD_LLaLxmj54fO6kVZlPBpwBasYJqQO-NxtAmR-dEszDrGN3eU0D0vyWv-LELLLINCO3a0BN0bQRIavawAYregmHajDRd4wSDS2SB5acjbGWEJExsmA1NQKFjWSI- -HA2Eiqbyi-QLB3pJl3BrA_coclvyU4h0-U0wdiVQkOko5DsZbOjNvam2kXZzZDp5-QVFNpwMww4qqarlMFiKu7SWsP59wKtFTQbbFMeQODllTr2XRz1Ju0GR3-_WJF1zyDvosv9Du0DBckYkusn9UskQKDUZ2lR7RTExRO79pKh-Z4iiXThZqE5W7IMJYHzEJxzcehw0u11GdehXIH1vxNmHEKheGcOh6FOvUAPlfzEdgXX1nw7ZCiW1RgSFzoUYfnCGGStqJZ2RKJ3o-FIOwBdW9K8Rq3Oeob94u6NiabCwbHM9bv70U-uuLk69CkCRCTD9DP9cRWcUO_9YXugKI8rrhXZ7Eqi9TFPA5iNMC_GtY49OWy3bFbRif8KSD4eYHudaKV7Rzk4zW1-88kFivnwtViYRDrhiyXnO3yFbhly0]--></g></svg>