<svg xmlns="http://www.w3.org/2000/svg" xmlns:xlink="http://www.w3.org/1999/xlink" contentStyleType="text/css" data-diagram-type="STATE" height="1173px" preserveAspectRatio="none" style="width:404px;height:1173px;background:#FFFFFF;" version="1.1" viewBox="0 0 404 1173" width="404px" zoomAndPan="magnify"><defs/><g><path d="M19.5,7 L365.5,7 A12.5,12.5 0 0 1 378,19.5 L378,28.6406 L7,28.6406 L7,19.5 A12.5,12.5 0 0 1 19.5,7" fill="#F1F1F1"/><rect fill="none" height="1018.6406" rx="12.5" ry="12.5" style="stroke:#181818;stroke-width:0.5;" width="371" x="7" y="7"/><line style="stroke:#181818;stroke-width:0.5;" x1="7" x2="378" y1="28.6406" y2="28.6406"/><text fill="#000000" font-family="Arial" font-size="10" lengthAdjust="spacing" textLength="145.2734" x="119.8633" y="21.2822">enviarMensajeDeIncidencia()</text><g id="enviarMensajeDeIncidencia.SeleccionandoIncidencia"><rect fill="#F1F1F1" height="50" rx="12.5" ry="12.5" style="stroke:#181818;stroke-width:0.5;" width="50" x="19" y="126.6406"/><line style="stroke:#181818;stroke-width:0.5;" x1="19" x2="69" y1="148.2813" y2="148.2813"/><text fill="#000000" font-family="Arial" font-size="10" lengthAdjust="spacing" textLength="3.1787" x="42.4106" y="140.9229">&#160;</text></g><g id="enviarMensajeDeIncidencia.AbriendoChat"><rect fill="#F1F1F1" height="50" rx="12.5" ry="12.5" style="stroke:#181818;stroke-width:0.5;" width="50" x="19" y="290.6406"/><line style="stroke:#181818;stroke-width:0.5;" x1="19" x2="69" y1="312.2813" y2="312.2813"/><text fill="#000000" font-family="Arial" font-size="10" lengthAdjust="spacing" textLength="3.1787" x="42.4106" y="304.9229">&#160;</text></g><g id="enviarMensajeDeIncidencia.SeleccionandoDestinatario"><rect fill="#F1F1F1" height="50" rx="12.5" ry="12.5" style="stroke:#181818;stroke-width:0.5;" width="50" x="19" y="454.6406"/><line style="stroke:#181818;stroke-width:0.5;" x1="19" x2="69" y1="476.2813" y2="476.2813"/><text fill="#000000" font-family="Arial" font-size="10" lengthAdjust="spacing" textLength="3.1787" x="42.4106" y="468.9229">&#160;</text></g><g id="enviarMensajeDeIncidencia.RedactandoMensaje"><rect fill="#F1F1F1" height="50" rx="12.5" ry="12.5" style="stroke:#181818;stroke-width:0.5;" width="50" x="19" y="583.6406"/><line style="stroke:#181818;stroke-width:0.5;" x1="19" x2="69" y1="605.2813" y2="605.2813"/><text fill="#000000" font-family="Arial" font-size="10" lengthAdjust="spacing" textLength="3.1787" x="42.4106" y="597.9229">&#160;</text></g><g id="enviarMensajeDeIncidencia.MensajeEnviado"><rect fill="#F1F1F1" height="50" rx="12.5" ry="12.5" style="stroke:#181818;stroke-width:0.5;" width="50" x="19" y="747.6406"/><line style="stroke:#181818;stroke-width:0.5;" x1="19" x2="69" y1="769.2813" y2="769.2813"/><text fill="#000000" font-family="Arial" font-size="10" lengthAdjust="spacing" textLength="3.1787" x="42.4106" y="761.9229">&#160;</text></g><g id="enviarMensajeDeIncidencia.RespuestaRecibida"><rect fill="#F1F1F1" height="50" rx="12.5" ry="12.5" style="stroke:#181818;stroke-width:0.5;" width="50" x="19" y="876.6406"/><line style="stroke:#181818;stroke-width:0.5;" x1="19" x2="69" y1="898.2813" y2="898.2813"/><text fill="#000000" font-family="Arial" font-size="10" lengthAdjust="spacing" textLength="3.1787" x="42.4106" y="890.9229">&#160;</text></g><ellipse cx="44" cy="49.6406" fill="#222222" rx="10" ry="10" style="stroke:#222222;stroke-width:1;"/><ellipse cx="44" cy="1004.6406" fill="none" rx="11" ry="11" style="stroke:#222222;stroke-width:1;"/><ellipse cx="44" cy="1004.6406" fill="#222222" rx="6" ry="6" style="stroke:#222222;stroke-width:1;"/><!--link *start*enviarMensajeDeIncidencia to SeleccionandoIncidencia--><g class="link" data-entity-1=".start.enviarMensajeDeIncidencia" data-entity-2="SeleccionandoIncidencia" data-source-line="13" data-uid="lnk3" id="link_.start.enviarMensajeDeIncidencia_SeleccionandoIncidencia"><path d="M44,59.8706 C44,74.8606 44,98.9706 44,120.4006" fill="none" id="*start*enviarMensajeDeIncidencia-to-SeleccionandoIncidencia" style="stroke:#008000;stroke-width:1;"/><polygon fill="#008000" points="44,126.4006,48,117.4006,44,121.4006,40,117.4006,44,126.4006" style="stroke:#008000;stroke-width:1;"/><path d="M49,82.6406 L49,103.6406 L311,103.6406 L311,92.6406 L301,82.6406 L49,82.6406" fill="#FEFFDD" style="stroke:#181818;stroke-width:0.5;"/><path d="M301,82.6406 L301,92.6406 L311,92.6406 L301,82.6406" fill="#FEFFDD" style="stroke:#181818;stroke-width:0.5;"/><text fill="#000000" font-family="Arial" font-size="10" font-weight="bold" lengthAdjust="spacing" textLength="71.6504" x="55" y="96.9229">Responsable</text><text fill="#000000" font-family="Arial" font-size="10" lengthAdjust="spacing" textLength="166.7334" x="129.8291" y="96.9229">solicita comunicar una incidencia</text></g><!--link SeleccionandoIncidencia to AbriendoChat--><g class="link" data-entity-1="SeleccionandoIncidencia" data-entity-2="AbriendoChat" data-source-line="18" data-uid="lnk4" id="link_SeleccionandoIncidencia_AbriendoChat"><path d="M44,176.8906 C44,207.5206 44,253.9006 44,284.4906" fill="none" id="SeleccionandoIncidencia-to-AbriendoChat" style="stroke:#008000;stroke-width:1;"/><polygon fill="#008000" points="44,290.4906,48,281.4906,44,285.4906,40,281.4906,44,290.4906" style="stroke:#008000;stroke-width:1;"/><path d="M49,199.6406 L49,267.6406 L284,267.6406 L284,209.6406 L274,199.6406 L49,199.6406" fill="#FEFFDD" style="stroke:#181818;stroke-width:0.5;"/><path d="M274,199.6406 L274,209.6406 L284,209.6406 L274,199.6406" fill="#FEFFDD" style="stroke:#181818;stroke-width:0.5;"/><text fill="#000000" font-family="Arial" font-size="10" font-weight="bold" lengthAdjust="spacing" textLength="45.3125" x="55" y="213.9229">Sistema</text><text fill="#000000" font-family="Arial" font-size="10" lengthAdjust="spacing" textLength="150.835" x="103.4912" y="213.9229">abre el panel de conversacion</text><text fill="#000000" font-family="Arial" font-size="10" lengthAdjust="spacing" textLength="179.9854" x="55" y="225.5635">&#8226; Permite iniciar mensaje sin adjunto</text><text fill="#000000" font-family="Arial" font-size="10" lengthAdjust="spacing" textLength="214.5898" x="55" y="237.2041">&#8226; Permite adjuntar una notificacion reciente</text><text fill="#000000" font-family="Arial" font-size="10" lengthAdjust="spacing" textLength="198.1104" x="55" y="248.8447">&#8226; Permite retirar el adjunto seleccionado</text><text fill="#000000" font-family="Arial" font-size="10" lengthAdjust="spacing" textLength="173.0322" x="55" y="260.4854">&#8226; Permite cancelar cerrando el chat</text></g><!--link AbriendoChat to SeleccionandoDestinatario--><g class="link" data-entity-1="AbriendoChat" data-entity-2="SeleccionandoDestinatario" data-source-line="27" data-uid="lnk5" id="link_AbriendoChat_SeleccionandoDestinatario"><path d="M44,340.8906 C44,371.5206 44,417.9006 44,448.4906" fill="none" id="AbriendoChat-to-SeleccionandoDestinatario" style="stroke:#008000;stroke-width:1;"/><polygon fill="#008000" points="44,454.4906,48,445.4906,44,449.4906,40,445.4906,44,454.4906" style="stroke:#008000;stroke-width:1;"/><path d="M49,363.6406 L49,431.6406 L308,431.6406 L308,373.6406 L298,363.6406 L49,363.6406" fill="#FEFFDD" style="stroke:#181818;stroke-width:0.5;"/><path d="M298,363.6406 L298,373.6406 L308,373.6406 L298,363.6406" fill="#FEFFDD" style="stroke:#181818;stroke-width:0.5;"/><text fill="#000000" font-family="Arial" font-size="10" font-weight="bold" lengthAdjust="spacing" textLength="45.3125" x="55" y="377.9229">Sistema</text><text fill="#000000" font-family="Arial" font-size="10" lengthAdjust="spacing" textLength="189.5508" x="103.4912" y="377.9229">presenta los destinatarios disponibles</text><text fill="#000000" font-family="Arial" font-size="10" lengthAdjust="spacing" textLength="136.9727" x="55" y="389.5635">&#8226; Tecnico de mantenimiento</text><text fill="#000000" font-family="Arial" font-size="10" lengthAdjust="spacing" textLength="90.5713" x="55" y="401.2041">&#8226; Jefe de seguridad</text><text fill="#000000" font-family="Arial" font-size="10" lengthAdjust="spacing" textLength="113.2373" x="55" y="412.8447">&#8226; Supervisora de planta</text><text fill="#000000" font-family="Arial" font-size="10" lengthAdjust="spacing" textLength="54.5313" x="55" y="424.4854">&#8226; Soporte TI</text></g><!--link SeleccionandoDestinatario to RedactandoMensaje--><g class="link" data-entity-1="SeleccionandoDestinatario" data-entity-2="RedactandoMensaje" data-source-line="36" data-uid="lnk6" id="link_SeleccionandoDestinatario_RedactandoMensaje"><path d="M44,504.8306 C44,527.4206 44,554.9706 44,577.5406" fill="none" id="SeleccionandoDestinatario-to-RedactandoMensaje" style="stroke:#008000;stroke-width:1;"/><polygon fill="#008000" points="44,583.5406,48,574.5406,44,578.5406,40,574.5406,44,583.5406" style="stroke:#008000;stroke-width:1;"/><path d="M49,527.6406 L49,560.6406 L369,560.6406 L369,537.6406 L359,527.6406 L49,527.6406" fill="#FEFFDD" style="stroke:#181818;stroke-width:0.5;"/><path d="M359,527.6406 L359,537.6406 L369,537.6406 L359,527.6406" fill="#FEFFDD" style="stroke:#181818;stroke-width:0.5;"/><text fill="#000000" font-family="Arial" font-size="10" font-weight="bold" lengthAdjust="spacing" textLength="71.6504" x="55" y="541.9229">Responsable</text><text fill="#000000" font-family="Arial" font-size="10" lengthAdjust="spacing" textLength="225.0732" x="129.8291" y="541.9229">selecciona responsable y redacta el mensaje</text><text fill="#000000" font-family="Arial" font-size="10" font-weight="bold" lengthAdjust="spacing" textLength="45.3125" x="55" y="553.5635">Sistema</text><text fill="#000000" font-family="Arial" font-size="10" lengthAdjust="spacing" textLength="205.4395" x="103.4912" y="553.5635">mantiene, si existe, la incidencia adjunta</text></g><!--link RedactandoMensaje to MensajeEnviado--><g class="link" data-entity-1="RedactandoMensaje" data-entity-2="MensajeEnviado" data-source-line="42" data-uid="lnk7" id="link_RedactandoMensaje_MensajeEnviado"><path d="M44,633.8906 C44,664.5206 44,710.9006 44,741.4906" fill="none" id="RedactandoMensaje-to-MensajeEnviado" style="stroke:#008000;stroke-width:1;"/><polygon fill="#008000" points="44,747.4906,48,738.4906,44,742.4906,40,738.4906,44,747.4906" style="stroke:#008000;stroke-width:1;"/><path d="M49,656.6406 L49,724.6406 L312,724.6406 L312,666.6406 L302,656.6406 L49,656.6406" fill="#FEFFDD" style="stroke:#181818;stroke-width:0.5;"/><path d="M302,656.6406 L302,666.6406 L312,666.6406 L302,656.6406" fill="#FEFFDD" style="stroke:#181818;stroke-width:0.5;"/><text fill="#000000" font-family="Arial" font-size="10" font-weight="bold" lengthAdjust="spacing" textLength="71.6504" x="55" y="670.9229">Responsable</text><text fill="#000000" font-family="Arial" font-size="10" lengthAdjust="spacing" textLength="115.4932" x="129.8291" y="670.9229">solicita enviar mensaje</text><text fill="#000000" font-family="Arial" font-size="10" font-weight="bold" lengthAdjust="spacing" textLength="45.3125" x="55" y="682.5635">Sistema</text><text fill="#000000" font-family="Arial" font-size="10" lengthAdjust="spacing" textLength="193.6865" x="103.4912" y="682.5635">registra el mensaje en la conversacion</text><text fill="#000000" font-family="Arial" font-size="10" lengthAdjust="spacing" textLength="91.2695" x="55" y="694.2041">&#8226; Texto introducido</text><text fill="#000000" font-family="Arial" font-size="10" lengthAdjust="spacing" textLength="132.7588" x="55" y="705.8447">&#8226; Destinatario seleccionado</text><text fill="#000000" font-family="Arial" font-size="10" lengthAdjust="spacing" textLength="142.7979" x="55" y="717.4854">&#8226; Incidencia adjunta, si existe</text></g><!--link MensajeEnviado to RespuestaRecibida--><g class="link" data-entity-1="MensajeEnviado" data-entity-2="RespuestaRecibida" data-source-line="51" data-uid="lnk8" id="link_MensajeEnviado_RespuestaRecibida"><path d="M44,797.8306 C44,820.4206 44,847.9706 44,870.5406" fill="none" id="MensajeEnviado-to-RespuestaRecibida" style="stroke:#008000;stroke-width:1;"/><polygon fill="#008000" points="44,876.5406,48,867.5406,44,871.5406,40,867.5406,44,876.5406" style="stroke:#008000;stroke-width:1;"/><path d="M49,820.6406 L49,853.6406 L336,853.6406 L336,830.6406 L326,820.6406 L49,820.6406" fill="#FEFFDD" style="stroke:#181818;stroke-width:0.5;"/><path d="M326,820.6406 L326,830.6406 L336,830.6406 L326,820.6406" fill="#FEFFDD" style="stroke:#181818;stroke-width:0.5;"/><text fill="#000000" font-family="Arial" font-size="10" font-weight="bold" lengthAdjust="spacing" textLength="45.3125" x="55" y="834.9229">Sistema</text><text fill="#000000" font-family="Arial" font-size="10" lengthAdjust="spacing" textLength="218.1738" x="103.4912" y="834.9229">genera respuesta simulada del destinatario</text><text fill="#000000" font-family="Arial" font-size="10" lengthAdjust="spacing" textLength="135.5127" x="55" y="846.5635">y actualiza la conversacion</text></g><!--link RespuestaRecibida to *end*enviarMensajeDeIncidencia--><g class="link" data-entity-1="RespuestaRecibida" data-entity-2=".end.enviarMensajeDeIncidencia" data-source-line="57" data-uid="lnk10" id="link_RespuestaRecibida_.end.enviarMensajeDeIncidencia"><path d="M44,926.8306 C44,948.0706 44,971.9306 44,987.4206" fill="none" id="RespuestaRecibida-to-*end*enviarMensajeDeIncidencia" style="stroke:#008000;stroke-width:1;"/><polygon fill="#008000" points="44,993.4206,48,984.4206,44,988.4206,40,984.4206,44,993.4206" style="stroke:#008000;stroke-width:1;"/><path d="M49,949.6406 L49,970.6406 L261,970.6406 L261,959.6406 L251,949.6406 L49,949.6406" fill="#FEFFDD" style="stroke:#181818;stroke-width:0.5;"/><path d="M251,949.6406 L251,959.6406 L261,959.6406 L251,949.6406" fill="#FEFFDD" style="stroke:#181818;stroke-width:0.5;"/><text fill="#000000" font-family="Arial" font-size="10" lengthAdjust="spacing" textLength="191.748" x="55" y="963.9229">incidencia comunicada correctamente</text></g><g id="CHAT_ABIERTO"><rect fill="#F1F1F1" height="50" rx="12.5" ry="12.5" style="stroke:#181818;stroke-width:0.5;" width="96.3477" x="66.5" y="1117"/><line style="stroke:#181818;stroke-width:0.5;" x1="66.5" x2="162.8477" y1="1138.6406" y2="1138.6406"/><text fill="#000000" font-family="Arial" font-size="10" lengthAdjust="spacing" textLength="76.3477" x="76.5" y="1131.2822">CHAT_ABIERTO</text></g><g id="SISTEMA_DISPONIBLE"><rect fill="#F1F1F1" height="50" rx="12.5" ry="12.5" style="stroke:#181818;stroke-width:0.5;" width="128.6182" x="206" y="1117"/><line style="stroke:#181818;stroke-width:0.5;" x1="206" x2="334.6182" y1="1138.6406" y2="1138.6406"/><text fill="#000000" font-family="Arial" font-size="10" lengthAdjust="spacing" textLength="108.6182" x="216" y="1131.2822">SISTEMA_DISPONIBLE</text></g><!--link enviarMensajeDeIncidencia to CHAT_ABIERTO--><g class="link" data-entity-1="enviarMensajeDeIncidencia" data-entity-2="CHAT_ABIERTO" data-source-line="63" data-uid="lnk12" id="link_enviarMensajeDeIncidencia_CHAT_ABIERTO"><path d="M115.97,1026.28 C113.15,1045.05 111.5,1056 111.5,1056 C111.5,1056 111.5,1087 111.5,1087 C111.5,1087 112.0265,1096.4793 112.8265,1110.8493" fill="none" id="enviarMensajeDeIncidencia-to-CHAT_ABIERTO" style="stroke:#008000;stroke-width:1;"/><polygon fill="#008000" points="113.16,1116.84,116.6535,1107.6316,112.8821,1111.8477,108.6659,1108.0763,113.16,1116.84" style="stroke:#008000;stroke-width:1;"/><path d="M116.5,1061 L116.5,1082 L222.5,1082 L222.5,1071 L212.5,1061 L116.5,1061" fill="#FEFFDD" style="stroke:#181818;stroke-width:0.5;"/><path d="M212.5,1061 L212.5,1071 L222.5,1071 L212.5,1061" fill="#FEFFDD" style="stroke:#181818;stroke-width:0.5;"/><text fill="#000000" font-family="Arial" font-size="10" lengthAdjust="spacing" textLength="85.459" x="122.5" y="1075.2822">mensaje enviado</text></g><!--link enviarMensajeDeIncidencia to SISTEMA_DISPONIBLE--><g class="link" data-entity-1="enviarMensajeDeIncidencia" data-entity-2="SISTEMA_DISPONIBLE" data-source-line="68" data-uid="lnk14" id="link_enviarMensajeDeIncidencia_SISTEMA_DISPONIBLE"><path d="M256.15,1026.28 C260.96,1064.76 264.1862,1090.4963 266.7162,1110.7463" fill="none" id="enviarMensajeDeIncidencia-to-SISTEMA_DISPONIBLE" style="stroke:#0000FF;stroke-width:1;"/><polygon fill="#0000FF" points="267.46,1116.7,270.3134,1107.2735,266.8401,1111.7386,262.3751,1108.2653,267.46,1116.7" style="stroke:#0000FF;stroke-width:1;"/><path d="M266.5,1061 L266.5,1082 L397.5,1082 L397.5,1071 L387.5,1061 L266.5,1061" fill="#FEFFDD" style="stroke:#181818;stroke-width:0.5;"/><path d="M387.5,1061 L387.5,1071 L397.5,1071 L387.5,1061" fill="#FEFFDD" style="stroke:#181818;stroke-width:0.5;"/><text fill="#000000" font-family="Arial" font-size="10" lengthAdjust="spacing" textLength="110.2832" x="272.5" y="1075.2822">cancelar o cerrar chat</text></g><!--SRC=[bLNRJjj047ttLupeIrk1shuZf02fwgfSHFA641hRGpgmthLsruXGLUgtzDFw9PsrW-y9hI9PMS_rd3CxTW-i2xIOWs9DVbqG54Qjmo5oZIsZEooL_soqFyUSO6OPrRHzmSy4dpv6aVFe2KW_CjepqWxlwPHYdN96ya101tjRhM_VxS6F2A1EiYS_SL-GeZHber5dflKTkiqIooGU9z_HxqnnIiwpHe-MpT3nYZ9CVV3QT3TqsBoU1mJPHBWhIacFLvHomXb6ud7z_WOEhj-iB96-EJZQWKSRIMLqqEH1ZW27oL58QQHcekZmGt84pYXEsIEa9YyrfsYXr0ZSpICqLBb2zItLUXqDg9jgOy7EKuvL2vXOKLX1WLgU6Kah-f6imr2c2lZpwpTSairP4h4qAMf3NZC7ZZLWTbzgRqQ-zViD96c3xmHWo0fM22NjQHHYoREL2EbaanLS0paRbqXHfwGa82Lh0oSXCgs1TtdhSh9Tli4ilSPSOSa92WHbd13Nnig9WyuiChkcvoMbGfu95ESeu3NdWOGMr5Uwes1rj2gjZ5lMM1PbGVQHdR4O70ebyTXQJM6ijBgCTqrB5roFWgbRya-pssGNsHeJhELK9GnIv4t64Nk10y5F-p93G4_1iW-gE_il0pH0DUgtXsPqfV_h6jQxR5VRbbPoibrq4XKQdxmtItgI6MRjhSbA0TQgtTDZSiZZ4HCThWQaz64Fz1skiTT7UoN2s5hNAbJgvgN2B8oVwirw5Rq6KQH4nSyumKHVl44plLPbkKurrnc9bpsPXRzMzeYNJvdkq_4pYhP_iRhbJhxCbhUputX-jRo81bLRRUj1Qa7ip9seaggz4Y-MyxFPxMcykBmuZu-_pOS5cjLbwkLbwxtrKkSl]--></g></svg>